<?xml version="1.0" encoding="iso-8859-1"?>
<!-- Uploaded to: SVG Repo, www.svgrepo.com, Generator: SVG Repo Mixer Tools -->
<svg fill="#000000" height="800px" width="800px" version="1.1" id="Layer_1" xmlns="http://www.w3.org/2000/svg" xmlns:xlink="http://www.w3.org/1999/xlink" 
	 viewBox="0 0 512.001 512.001" xml:space="preserve">
<g>
	<g>
		<path d="M512.001,365.953c0-24.491-6.464-47.296-19.2-67.84c-11.84-19.072-46.315-63.445-110.784-63.445h-22.464
			c-3.435-12.864-10.667-29.525-25.877-45.013c-26.304-26.752-66.773-40.32-120.235-40.32c-3.648-0.149-68.864,0.043-128.107,27.413
			v-52.672c24.768-8.832,42.667-32.299,42.667-60.075c0-35.285-28.715-64-64-64s-64,28.715-64,64
			c0,27.776,17.899,51.243,42.667,60.075v79.424c-22.464,19.904-21.419,43.157-20.437,60.395c0.555,9.877,1.045,18.389-2.411,26.027
			c-8.789,19.435-15.147,37.931-18.837,54.976c-4.224,19.52,5.824,43.093,17.685,57.792c7.189,8.917,15.573,15.211,24.491,19.2
			c-0.107,1.621-0.491,3.136-0.491,4.779c0,47.061,38.272,85.333,85.333,85.333s85.333-38.272,85.333-85.333h85.333
			c0,47.061,38.272,85.333,85.333,85.333s85.333-38.272,85.333-85.333c0-0.213-0.064-0.427-0.064-0.64
			C498.966,422.614,512.001,380.011,512.001,365.953z M128.001,469.334c-23.531,0-42.667-19.136-42.667-42.667
			c0-4.885,1.003-9.493,2.496-13.845c0.064-0.128,0.149-0.213,0.192-0.341c4.416-12.459,14.272-21.803,26.197-26.005
			c0.64-0.213,1.28-0.405,1.941-0.597c3.797-1.131,7.744-1.877,11.84-1.877s8.043,0.747,11.84,1.877
			c0.661,0.192,1.301,0.384,1.941,0.597c11.925,4.203,21.781,13.547,26.197,26.005c0.043,0.128,0.128,0.213,0.192,0.341
			c1.493,4.352,2.496,8.96,2.496,13.845C170.668,450.198,151.532,469.334,128.001,469.334z M256.001,298.667h-128
			c-11.797,0-21.333-9.557-21.333-21.333s9.536-21.333,21.333-21.333h128c11.797,0,21.333,9.557,21.333,21.333
			S267.799,298.667,256.001,298.667z M384.001,469.334c-23.531,0-42.667-19.136-42.667-42.667c0-4.885,1.003-9.493,2.496-13.845
			c0.064-0.128,0.149-0.213,0.192-0.341c4.416-12.459,14.272-21.803,26.197-26.005c0.64-0.213,1.28-0.405,1.941-0.597
			c3.797-1.131,7.744-1.877,11.84-1.877c4.096,0,8.043,0.747,11.84,1.877c0.661,0.192,1.301,0.384,1.941,0.597
			c11.925,4.203,21.781,13.547,26.197,26.005c0.043,0.128,0.128,0.213,0.192,0.341c1.493,4.352,2.496,8.96,2.496,13.845
			C426.668,450.198,407.532,469.334,384.001,469.334z"/>
	</g>
</g>
</svg>